<svg width="192" height="155" viewBox="0 0 192 155" fill="none" xmlns="http://www.w3.org/2000/svg">
<g id="undrawSavings 1" clip-path="url(#clip0_8_176)">
<path id="Vector" d="M109.379 137.125C108.051 135.263 106.254 133.901 103.995 133.392C102.024 132.947 99.9984 133.023 97.9956 133.038L72.6715 133.234C70.5027 133.251 68.4232 135.132 68.524 137.387C68.624 139.622 70.3468 141.558 72.6715 141.54C80.0898 141.482 87.5079 141.425 94.9261 141.368C96.675 141.354 98.4248 141.323 100.174 141.329C100.567 141.33 100.958 141.351 101.35 141.355C101.445 141.356 101.514 141.355 101.562 141.353C101.574 141.357 101.585 141.36 101.6 141.365C101.805 141.421 102.015 141.46 102.221 141.513C102.149 141.515 102.355 141.644 102.458 141.687C102.472 141.715 102.502 141.765 102.553 141.842C102.623 141.974 102.832 142.376 102.841 142.363C103.154 143.157 103.413 143.972 103.615 144.801C104.097 146.631 104.203 147.013 104.272 148.729C104.36 150.897 106.117 152.985 108.42 152.882C110.592 152.784 112.661 151.054 112.567 148.729C112.409 144.811 111.722 140.41 109.379 137.125Z" fill="#E6E6E6"/>
<path id="Vector_2" d="M74.1602 146.496C73.6845 143.61 73.2179 140.722 72.733 137.838C72.241 134.911 71.2362 132.232 68.9619 130.311C68.3542 129.798 67.7241 129.319 67.0914 128.841C66.8689 128.673 66.6467 128.505 66.4269 128.334C66.4137 128.323 66.4054 128.317 66.394 128.308C66.3698 128.287 66.3408 128.263 66.3018 128.23C65.3539 127.426 64.438 126.587 63.5655 125.696C62.7908 124.903 62.0499 124.078 61.3428 123.218C61.1661 123.003 60.9917 122.787 60.8195 122.568C60.7899 122.531 60.6304 122.324 60.5254 122.19C60.4276 122.055 60.2491 121.811 60.2191 121.769C60.0179 121.484 59.8204 121.197 59.6264 120.907C58.3054 118.925 57.1615 116.83 56.2081 114.647C56.1135 114.431 56.0212 114.213 55.9311 113.994C55.907 113.927 55.8757 113.841 55.8342 113.727C55.642 113.198 55.4503 112.67 55.2746 112.134C54.9013 110.997 54.5804 109.843 54.3119 108.673C54.1791 108.095 54.0596 107.514 53.9533 106.93C53.8985 106.63 53.8472 106.329 53.7995 106.027C53.7917 105.977 53.7451 105.652 53.7176 105.468C53.6974 105.283 53.6596 104.956 53.6546 104.906C53.6242 104.602 53.5973 104.298 53.5737 103.993C53.5207 103.308 53.4848 102.621 53.4661 101.934C53.4342 100.712 53.4561 99.4902 53.5317 98.2685C53.5747 97.5821 53.636 96.8975 53.7114 96.2141C53.716 96.1721 53.7195 96.1387 53.7228 96.1086C53.7274 96.0781 53.7327 96.0434 53.739 96.0003C53.7948 95.6226 53.8536 95.2455 53.9193 94.8695C54.168 93.4421 54.4916 92.0287 54.8886 90.6353C55.0765 89.9763 55.2807 89.3226 55.5011 88.6743C55.5993 88.3865 55.7006 88.0998 55.8051 87.8142C55.7983 87.8326 56.1115 87.0314 56.1157 87.0045C57.3587 84.064 59.3917 81.3833 59.3945 78.043C59.3964 75.7814 57.4855 73.6149 55.2469 73.7195C54.1308 73.7615 53.0746 74.2358 52.3009 75.0423C51.5272 75.8489 51.0964 76.9246 51.0993 78.043C51.0993 78.0937 51.0991 78.1371 51.099 78.1791C51.0781 78.2495 51.0606 78.3083 51.0449 78.3602C50.8025 78.8877 50.5056 79.3888 50.2395 79.9031C49.511 81.3108 48.8891 82.7647 48.2984 84.2399C47.3313 86.6422 46.5911 89.13 46.0874 91.6705C44.9926 97.237 44.9076 102.955 45.8365 108.552C47.4446 118.367 52.7478 127.761 60.1205 134.077C60.7603 134.625 61.4157 135.154 62.0773 135.673C62.3511 135.888 62.6271 136.098 62.9046 136.308C63.0357 136.407 63.579 136.836 63.34 136.628C63.8539 137.067 64.0702 137.288 64.2022 137.612C64.2213 137.686 64.2474 137.787 64.2827 137.926C64.3758 138.291 64.4641 138.655 64.5375 139.024C65.1793 142.256 65.6253 145.542 66.1613 148.795C66.5298 151.03 69.2777 152.485 71.2634 151.815C73.5746 151.035 74.5549 148.891 74.1602 146.496Z" fill="#E6E6E6"/>
<path id="Vector_3" d="M109.798 154.879C108.057 154.883 106.384 154.196 105.148 152.967C103.911 151.738 103.212 150.069 103.204 148.325V143.588C98.2504 144.143 81.2883 144.014 76.4261 143.232V148.135C76.4131 149.878 75.7125 151.545 74.4772 152.773C73.2419 154 71.572 154.689 69.8315 154.689C68.091 154.689 66.421 154 65.1857 152.773C63.9504 151.545 63.2498 149.878 63.2368 148.135V138.508C56.6514 134.845 51.1616 129.489 47.3338 122.992C43.5061 116.495 41.4791 109.093 41.4621 101.55C41.4621 88.6168 47.3161 76.5515 57.5232 68.4484C64.1597 63.1619 72.2231 59.9827 80.6776 59.319C81.8252 59.2288 82.9797 59.1832 84.1094 59.1832C88.0891 59.1832 106.045 59.7988 110.55 61.0966L120.822 50.8904C120.973 50.7383 121.166 50.6347 121.376 50.5928C121.586 50.5509 121.804 50.5725 122.002 50.655C122.201 50.7344 122.371 50.8722 122.491 51.0504C122.61 51.2286 122.673 51.4388 122.671 51.6535V53.2762L124.672 51.2927C124.822 51.1404 125.015 51.0367 125.225 50.9947C125.435 50.9527 125.653 50.9743 125.85 51.0569C126.05 51.1362 126.22 51.2741 126.34 51.4523C126.46 51.6306 126.523 51.8409 126.521 52.0557V70.1895C131.676 74.8424 135.604 80.6966 137.959 87.2333C140.313 93.77 141.021 100.787 140.02 107.664C139.018 114.54 136.338 121.062 132.216 126.653C128.095 132.244 122.66 136.731 116.393 139.716V148.325C116.384 150.069 115.685 151.738 114.449 152.967C113.213 154.196 111.54 154.883 109.798 154.879ZM103.722 142.999V148.325C103.735 149.93 104.381 151.465 105.519 152.595C106.657 153.725 108.195 154.359 109.798 154.359C111.401 154.359 112.939 153.725 114.078 152.595C115.216 151.465 115.862 149.93 115.875 148.325V139.388L116.023 139.317C123.055 135.976 129.024 130.749 133.269 124.216C138.678 115.879 140.927 105.88 139.61 96.0264C138.293 86.1731 133.496 77.1175 126.089 70.4985L126.002 70.421V52.0557C126.004 51.9441 125.972 51.8347 125.91 51.742C125.848 51.6494 125.759 51.5781 125.655 51.5377C125.551 51.4935 125.437 51.4816 125.327 51.5035C125.217 51.5254 125.116 51.5802 125.037 51.6605L122.153 54.521V51.6535C122.155 51.5419 122.123 51.4324 122.06 51.3398C121.998 51.2472 121.909 51.1759 121.805 51.1355C121.702 51.0913 121.587 51.0795 121.477 51.1016C121.367 51.1237 121.265 51.1786 121.187 51.2592L110.694 61.6838L110.545 61.6371C106.357 60.3246 88.1193 59.7023 84.1094 59.7023C82.9932 59.7023 81.8523 59.7474 80.7183 59.8365C72.3665 60.4921 64.4012 63.6328 57.8453 68.8551C47.763 76.8592 41.9805 88.7762 41.9805 101.55C41.9977 109.027 44.0139 116.362 47.8195 122.794C51.6251 129.226 57.0814 134.521 63.6215 138.128L63.7552 138.202V148.135C63.7686 149.74 64.4147 151.275 65.5527 152.405C66.6908 153.535 68.2287 154.169 69.8315 154.169C71.4343 154.169 72.9721 153.535 74.1102 152.405C75.2483 151.275 75.8943 149.74 75.9077 148.135V142.611L76.2148 142.668C80.5842 143.492 98.9828 143.621 103.429 143.037L103.722 142.999Z" fill="#3F3D56"/>
<path id="Vector_4" d="M74.6556 30.9176L45.9492 39.5556C45.0362 39.8315 44.2698 40.4589 43.8185 41.3002C43.3672 42.1414 43.2679 43.1277 43.5424 44.0422C43.8168 44.9567 44.4426 45.7248 45.2823 46.1776C46.122 46.6304 47.1068 46.731 48.0205 46.4572L73.1417 38.8964L73.668 38.738C73.7745 36.0227 74.5102 33.3694 75.8169 30.9877C75.6529 30.9138 75.4777 30.8682 75.2985 30.8527C75.082 30.8317 74.8636 30.8538 74.6556 30.9176Z" fill="#165709"/>
<path id="Vector_5" d="M47.524 48.2988C47.143 48.2978 46.7718 48.177 46.4631 47.9534C46.1543 47.7298 45.9235 47.4147 45.8033 47.0526L44.0083 41.6289C43.9333 41.4024 43.9036 41.1634 43.9209 40.9254C43.9382 40.6874 44.0022 40.4552 44.1092 40.2419C44.2161 40.0287 44.364 39.8387 44.5443 39.6827C44.7246 39.5267 44.9338 39.4077 45.1601 39.3327L68.5241 31.5798C68.7503 31.5047 68.9891 31.475 69.2267 31.4923C69.4644 31.5096 69.6963 31.5736 69.9093 31.6807C70.1222 31.7877 70.312 31.9357 70.4678 32.1162C70.6237 32.2967 70.7424 32.5062 70.8174 32.7327L72.6125 38.1564C72.7618 38.6024 72.7319 39.0892 72.529 39.5136C72.3261 39.938 71.9662 40.2666 71.5255 40.4299C71.5039 40.438 71.4822 40.4456 71.4601 40.4528L48.0966 48.2055C47.912 48.2671 47.7186 48.2986 47.524 48.2988Z" fill="#2F2E41"/>
<path id="Vector_6" d="M91.2796 21.2855C86.564 21.2873 82.0342 23.1263 78.649 26.4133C75.2637 29.7002 73.2886 34.1771 73.1417 38.8963C73.1365 39.0806 73.134 39.2675 73.134 39.4544C73.134 43.0479 74.1982 46.5606 76.192 49.5485C78.1859 52.5363 81.0199 54.8651 84.3355 56.2402C87.6512 57.6154 91.2997 57.9752 94.8196 57.2742C98.3395 56.5731 101.573 54.8427 104.11 52.3017C106.648 49.7608 108.376 46.5234 109.077 42.999C109.777 39.4746 109.417 35.8214 108.044 32.5015C106.671 29.1815 104.345 26.344 101.361 24.3475C98.3767 22.3511 94.8684 21.2855 91.2796 21.2855ZM91.2796 57.1042C86.606 57.0993 82.1253 55.2382 78.8207 51.9293C75.516 48.6204 73.6573 44.1339 73.6524 39.4544C73.6524 39.213 73.6576 38.9742 73.668 38.738C73.8083 35.2807 74.9606 31.9409 76.9814 29.1341C79.0023 26.3272 81.8026 24.177 85.0341 22.9509C88.2656 21.7248 91.7858 21.4768 95.1569 22.2378C98.528 22.9989 101.601 24.7353 103.995 27.2313C106.388 29.7272 107.996 32.8726 108.618 36.2762C109.241 39.6798 108.85 43.1915 107.495 46.3746C106.141 49.5578 103.881 52.2719 100.998 54.1796C98.1149 56.0872 94.7353 57.1043 91.2796 57.1042Z" fill="#3F3D56"/>
<path id="Vector_7" d="M106.574 39.4544C106.574 43.5159 104.962 47.411 102.094 50.2829C99.2259 53.1547 95.3358 54.7682 91.2796 54.7682C87.2233 54.7682 83.3332 53.1547 80.465 50.2829C77.5968 47.411 75.9854 43.5159 75.9854 39.4544C75.9854 38.969 76.0087 38.4914 76.0527 38.0191C76.4213 34.0993 78.2835 30.4723 81.2525 27.8911C84.2216 25.3099 88.0694 23.9729 91.9971 24.1576C95.9248 24.3423 99.6306 26.0346 102.345 28.883C105.059 31.7315 106.574 35.5173 106.574 39.4544Z" fill="#E6E6E6"/>
<path id="Vector_8" d="M95.834 40.4718C95.4633 39.9838 94.9756 39.5973 94.4162 39.348C93.7261 39.0568 93.0134 38.8224 92.2853 38.6472V34.4787C93.4045 34.6477 94.4542 35.1269 95.3156 35.8621L96.1607 34.0582C95.6747 33.6247 95.1167 33.2795 94.512 33.0382C93.8417 32.7664 93.1382 32.5857 92.4201 32.5009V30.3881H90.463V32.5217C89.7073 32.6067 88.9783 32.8518 88.3244 33.2406C87.7338 33.5907 87.2366 34.0787 86.8753 34.663C86.5305 35.2332 86.3518 35.8886 86.3595 36.5552C86.3258 37.2775 86.5348 37.9902 86.9531 38.5797C87.3381 39.09 87.8466 39.4938 88.4306 39.7529C89.1317 40.0527 89.8566 40.2932 90.5978 40.4718V44.4664C89.277 44.3667 88.0186 43.8639 86.992 43.0259L86.147 44.8324C86.721 45.3075 87.3737 45.6783 88.0756 45.9277C88.8446 46.2033 89.6481 46.371 90.463 46.426V48.5207H92.4201V46.3871C93.5072 46.2682 94.5266 45.8001 95.326 45.053C95.678 44.715 95.9561 44.3074 96.1426 43.8561C96.3292 43.4049 96.4201 42.9198 96.4096 42.4315C96.4421 41.7322 96.2394 41.0422 95.834 40.4718ZM90.5978 38.2059C90.1211 38.0612 89.6778 37.823 89.2938 37.5051C89.1417 37.3696 89.0215 37.202 88.9417 37.0145C88.8619 36.8269 88.8246 36.6239 88.8325 36.4202C88.8183 35.9579 88.988 35.5089 89.3042 35.1717C89.6548 34.818 90.1071 34.583 90.5978 34.4995V38.2059ZM93.5141 43.7293C93.1833 44.0689 92.7527 44.2935 92.2853 44.3704V40.9339C92.7321 41.0539 93.1501 41.2631 93.5141 41.549C93.652 41.667 93.7617 41.8146 93.8348 41.9809C93.908 42.1472 93.9427 42.3278 93.9366 42.5094C93.9546 42.9548 93.8036 43.3906 93.5141 43.7293Z" fill="#165709"/>
<path id="Vector_9" d="M48.3572 70.2803C47.9564 70.2796 47.5671 70.1466 47.2496 69.9018C46.932 69.6571 46.704 69.3142 46.6009 68.9265L45.6236 65.2226C45.5013 64.7571 45.5684 64.262 45.8101 63.8459C46.0519 63.4298 46.4486 63.1267 46.9133 63.0031L77.7454 54.8454C78.2107 54.7238 78.7051 54.7917 79.1205 55.0342C79.5359 55.2767 79.8385 55.6741 79.962 56.1393L80.7899 59.2773L80.6348 59.2894C72.7273 59.905 65.1614 62.7757 58.8322 67.5617L58.7873 67.5835L48.8175 70.2205C48.6673 70.2602 48.5125 70.2803 48.3572 70.2803Z" fill="#2F2E41"/>
<path id="Vector_10" d="M43.2508 88.5754C39.634 88.0403 36.1749 86.7308 33.1094 84.736C31.5907 83.7484 30.1847 82.597 28.9168 81.3025C27.6653 80.0243 26.468 78.5717 25.8481 76.8695C25.2517 75.2947 25.2825 73.5506 25.934 71.9978C26.5766 70.4546 27.8042 69.2294 29.3476 68.591C30.9003 67.971 32.7762 67.9047 34.2872 68.5837C35.0073 68.8997 35.6304 69.4019 36.0925 70.0387C36.3074 70.3323 36.4664 70.663 36.5618 71.0142C36.6503 71.3324 36.6584 71.6677 36.5852 71.9899C36.4966 72.3115 36.3404 72.6104 36.1269 72.8666C35.9135 73.1228 35.6478 73.3303 35.3477 73.4753C34.6873 73.8146 33.9717 74.0331 33.2345 74.1206C32.4931 74.2219 31.4281 74.314 30.832 73.7181C30.7094 73.6002 30.6129 73.4577 30.5488 73.3C30.504 73.1792 30.4887 73.0494 30.5041 72.9215C30.4954 72.9779 30.5401 72.7989 30.5375 72.8061C30.5281 72.8325 30.4873 72.897 30.5453 72.7979C30.5635 72.7653 30.5836 72.7338 30.6058 72.7037C30.5861 72.7292 30.5428 72.7718 30.6201 72.6987C30.6839 72.6288 30.766 72.578 30.8571 72.5522C30.8929 72.5418 30.9293 72.5334 30.9653 72.5236C31.0568 72.4986 30.8742 72.525 30.9677 72.522C31.0038 72.5208 31.0404 72.5217 31.0763 72.5201C31.1681 72.5159 30.9858 72.495 31.0737 72.5172C31.1079 72.5258 31.1417 72.5342 31.1754 72.5448C31.2485 72.5678 31.1236 72.4911 31.1731 72.5485C31.2312 72.6159 31.1122 72.483 31.1782 72.5482C31.211 72.5805 31.242 72.6147 31.2709 72.6506C31.3853 72.7637 31.5397 72.8271 31.7005 72.8271C31.8614 72.8271 32.0157 72.7637 32.1302 72.6506C32.2408 72.5347 32.3025 72.3806 32.3025 72.2203C32.3025 72.0601 32.2408 71.906 32.1302 71.7901C31.531 71.0464 30.3475 71.2302 29.7414 71.8587C28.9684 72.6604 29.2745 73.9308 30.0264 74.6303C30.8776 75.4221 32.0832 75.4772 33.1781 75.3443C34.1035 75.2556 35.0053 75.0004 35.8401 74.5911C36.6697 74.183 37.3185 73.4812 37.6609 72.6216C37.8155 72.1628 37.8711 71.6764 37.8238 71.1946C37.7766 70.7127 37.6278 70.2464 37.3871 69.8264C36.4204 68.0067 34.4186 67.0737 32.44 66.9121C31.4213 66.8322 30.3969 66.9553 29.4261 67.2745C28.4552 67.5936 27.5572 68.1023 26.784 68.7712C25.2938 70.1146 24.3761 71.98 24.2208 73.9818C24.0481 76.0572 24.8523 78.0727 26.0248 79.7476C27.2523 81.4494 28.717 82.9662 30.3744 84.2518C33.6145 86.8419 37.4152 88.6366 41.4722 89.4924C41.9548 89.5922 42.44 89.6776 42.9277 89.7487C43.0829 89.7864 43.2466 89.7634 43.3855 89.6844C43.5243 89.6055 43.6279 89.4765 43.6752 89.3238C43.7168 89.1682 43.6957 89.0025 43.6162 88.8624C43.5368 88.7224 43.4055 88.6193 43.2508 88.5754Z" fill="#3F3D56"/>
<path id="Vector_11" d="M101.157 62.1329C95.8583 62.058 90.5759 62.1926 85.3102 62.5368C83.5104 62.6545 81.9531 63.2915 81.9531 64.362C81.9531 65.2571 83.498 66.3057 85.3102 66.1872C90.5732 65.8431 95.8556 65.7085 101.157 65.7833C105.48 65.8444 105.477 62.1939 101.157 62.1329Z" fill="#CCCCCC"/>
<path id="Vector_12" d="M93.3252 65.6024C92.7526 65.6024 79.2998 65.581 79.2998 63.7204C79.2998 61.8599 92.7526 61.8385 93.3252 61.8385C93.8979 61.8385 107.351 61.8599 107.351 63.7204C107.351 65.581 93.8979 65.6024 93.3252 65.6024ZM79.8258 63.7204C80.194 64.2845 85.139 65.0833 93.3252 65.0833C101.512 65.0833 106.456 64.2845 106.825 63.7204C106.457 63.1564 101.512 62.3576 93.3252 62.3576C85.139 62.3576 80.194 63.1564 79.8258 63.7204Z" fill="#3F3D56"/>
<path id="Vector_13" d="M136.007 114.516C138.985 114.433 142.692 114.329 145.547 112.241C146.397 111.594 147.096 110.768 147.594 109.822C148.092 108.875 148.377 107.832 148.43 106.763C148.488 105.114 147.893 103.674 146.754 102.711C145.262 101.449 143.085 101.153 140.738 101.844L143.169 84.0516L141.385 83.8067L138.526 104.723L140.017 104.039C141.745 103.245 144.117 102.841 145.591 104.088C145.953 104.414 146.235 104.82 146.415 105.273C146.595 105.726 146.668 106.214 146.629 106.7C146.586 107.495 146.371 108.271 146.001 108.976C145.631 109.681 145.114 110.297 144.484 110.784C142.262 112.409 139.308 112.619 135.957 112.713L136.007 114.516Z" fill="#3F3D56"/>
<path id="Vector_14" d="M131.072 85.586H121.369V87.39H131.072V85.586Z" fill="#3F3D56"/>
<path id="Vector_15" d="M52.748 78.5771C52.3161 78.5758 51.8988 78.4204 51.5709 78.139C51.2429 77.8576 51.0258 77.4684 50.9583 77.0412L50.3661 73.2565C50.2921 72.7805 50.4097 72.2946 50.6931 71.9053C50.9766 71.5161 51.4027 71.2553 51.8779 71.1802L83.3816 66.2376C83.857 66.1636 84.3423 66.2814 84.731 66.5652C85.1198 66.8489 85.3802 67.2755 85.4552 67.7514L86.0474 71.5362C86.1214 72.0122 86.0038 72.4981 85.7204 72.8874C85.437 73.2767 85.0109 73.5374 84.5357 73.6125L53.0319 78.555C52.938 78.5697 52.8431 78.5771 52.748 78.5771Z" fill="#2F2E41"/>
<path id="Vector_16" d="M39.7102 34.2236C47.0116 34.2236 52.9306 28.2971 52.9306 20.9863C52.9306 13.6755 47.0116 7.74896 39.7102 7.74896C32.4088 7.74896 26.4898 13.6755 26.4898 20.9863C26.4898 28.2971 32.4088 34.2236 39.7102 34.2236Z" fill="#165709"/>
<path id="Vector_17" d="M47.1953 24.4113C47.6179 24.2634 48.0038 24.0265 48.3273 23.7167C48.5414 23.4959 48.7046 23.2308 48.8055 22.9402C48.9065 22.6495 48.9428 22.3402 48.9118 22.034C48.8938 21.8158 48.8257 21.6047 48.7127 21.4172C48.5998 21.2297 48.445 21.0709 48.2606 20.9532C47.7822 20.6586 47.15 20.6697 46.5117 20.966L46.438 15.7988L45.9196 15.8062L46.0062 21.8808L46.4008 21.6216C46.8584 21.3216 47.5159 21.1041 47.989 21.3954C48.106 21.4726 48.2036 21.5757 48.2744 21.6967C48.3451 21.8178 48.3869 21.9536 48.3967 22.0935C48.4185 22.3216 48.391 22.5517 48.316 22.7682C48.241 22.9847 48.1204 23.1825 47.9622 23.3481C47.4002 23.9064 46.5684 24.0935 45.619 24.2646L45.7109 24.7755C46.2156 24.6987 46.7124 24.5769 47.1953 24.4113Z" fill="#2F2E41"/>
<path id="Vector_18" d="M51.7764 15.4362L49.0156 15.8548L49.0932 16.368L51.854 15.9494L51.7764 15.4362Z" fill="#2F2E41"/>
<path id="Vector_19" d="M43.0621 16.7573L40.3013 17.1759L40.379 17.6891L43.1397 17.2705L43.0621 16.7573Z" fill="#2F2E41"/>
<path id="Vector_20" d="M48.4468 78.3457C47.9713 78.3447 47.5075 78.1988 47.1169 77.9273C46.7263 77.6558 46.4276 77.2717 46.2604 76.826L37.1453 52.384C36.0312 49.3863 36.1502 46.0686 37.4761 43.1586C38.8021 40.2487 41.2267 37.9842 44.218 36.862L51.6296 34.0909C51.9162 33.983 52.2213 33.933 52.5273 33.9436C52.8333 33.9542 53.1341 34.0254 53.4126 34.1529C53.6903 34.2771 53.9406 34.4556 54.1487 34.6778C54.3567 34.9 54.5185 35.1615 54.6245 35.447L71.5094 67.3681C71.619 67.6559 71.6707 67.9627 71.6615 68.2706C71.6523 68.5785 71.5823 68.8816 71.4557 69.1623C71.3291 69.4431 71.1482 69.696 70.9236 69.9065C70.6989 70.117 70.4349 70.2809 70.1468 70.3889L49.2621 78.1973C49.0014 78.2952 48.7253 78.3455 48.4468 78.3457Z" fill="#2F2E41"/>
<path id="Vector_21" d="M49.3809 34.9316L66.1342 57.3639L54.798 35.1671C54.7044 34.9081 54.5607 34.6701 54.3752 34.4667C54.1897 34.2633 53.966 34.0985 53.7169 33.9817C53.4678 33.8649 53.1981 33.7984 52.9233 33.786C52.6485 33.7735 52.3739 33.8154 52.1153 33.9093L49.3809 34.9316Z" fill="#E6E6E6"/>
<path id="Vector_22" d="M75.9077 51.9675L45.9947 50.0382C45.5232 50.0078 45.0623 49.8847 44.6383 49.6759C44.2143 49.4672 43.8355 49.1769 43.5236 48.8215C43.2117 48.4662 42.9727 48.0528 42.8203 47.605C42.6679 47.1572 42.6051 46.6837 42.6355 46.2116C42.6659 45.7395 42.7888 45.278 42.9973 44.8535C43.2058 44.429 43.4957 44.0497 43.8506 43.7374C44.2055 43.425 44.6183 43.1858 45.0656 43.0332C45.5128 42.8806 45.9857 42.8177 46.4572 42.8481L76.3703 44.7773C76.5911 44.7915 76.807 44.8492 77.0055 44.9469C77.2041 45.0447 77.3815 45.1806 77.5276 45.347C77.6736 45.5135 77.7856 45.707 77.8569 45.9168C77.9283 46.1265 77.9577 46.3482 77.9435 46.5693L77.6976 50.3923C77.6688 50.8389 77.4641 51.2557 77.1285 51.5511C76.7928 51.8465 76.3537 51.9963 75.9077 51.9675Z" fill="#165709"/>
<path id="Vector_23" d="M67.9145 53.2044C67.875 53.2044 67.8354 53.2031 67.7957 53.2006L43.2327 51.6164C42.9949 51.6011 42.7625 51.539 42.5486 51.4337C42.3348 51.3285 42.1437 51.182 41.9864 51.0028C41.8291 50.8236 41.7085 50.6151 41.6317 50.3893C41.5549 50.1634 41.5232 49.9247 41.5385 49.6866L41.9586 43.1566C41.9739 42.9185 42.0359 42.6857 42.141 42.4716C42.2462 42.2575 42.3925 42.0663 42.5715 41.9087C42.7504 41.7512 42.9587 41.6306 43.1843 41.5536C43.4098 41.4767 43.6483 41.445 43.8861 41.4604L68.449 43.0444C68.9291 43.0759 69.377 43.2968 69.6946 43.6586C70.0122 44.0204 70.1735 44.4935 70.1432 44.9742L69.7232 51.5043C69.7001 51.8542 69.5766 52.19 69.3675 52.4713C69.1585 52.7527 68.8728 52.9676 68.5447 53.0904C68.3432 53.1659 68.1297 53.2045 67.9145 53.2044Z" fill="#2F2E41"/>
<path id="Vector_24" d="M39.5586 12.1837C41.2978 10.6859 43.6861 12.0257 45.6806 11.7912C47.5888 11.5668 49.0956 9.85297 49.4805 8.03223C49.9295 5.90803 48.8284 3.77988 47.2054 2.45548C45.4278 1.00494 43.0702 0.588519 40.8362 0.856881C38.2756 1.16445 35.9339 2.35954 33.8327 3.80505C31.8046 5.1571 29.9394 6.7396 28.2746 8.52096C26.7837 10.1696 25.5206 12.1347 25.1173 14.3531C24.7508 16.3692 25.0306 18.6033 26.2209 20.3112C26.8521 21.1866 27.698 21.8844 28.6769 22.3371C29.6975 22.839 30.7863 23.1977 31.7751 23.7651C33.2703 24.623 34.7234 26.4019 34.2551 28.2531C34.1547 28.6575 33.9565 29.0309 33.678 29.3406C33.3435 29.7125 32.74 29.2211 33.0754 28.8482C33.6646 28.1934 33.6414 27.32 33.3274 26.5381C32.9541 25.6571 32.2929 24.9291 31.4523 24.4735C30.4173 23.881 29.2745 23.5152 28.2136 22.9755C27.1982 22.4825 26.3167 21.7511 25.6443 20.8436C24.3746 19.0768 23.9948 16.7774 24.2828 14.6503C24.5944 12.3485 25.7755 10.2568 27.2562 8.50392C28.8676 6.59634 30.8469 4.98162 32.869 3.53101C35.0387 1.97449 37.4359 0.658567 40.0884 0.182618C42.3878 -0.229956 44.8801 0.0240506 46.8908 1.2787C48.7676 2.44984 50.2068 4.46443 50.35 6.71553C50.4013 7.73978 50.1792 8.75923 49.7065 9.66899C49.2337 10.5787 48.5274 11.3459 47.6602 11.8916C46.7704 12.4248 45.7358 12.6648 44.7025 12.5777C43.5978 12.5069 42.492 12.1682 41.3802 12.2622C40.8771 12.2928 40.3977 12.4867 40.0146 12.8147C39.6346 13.1419 39.1818 12.5082 39.5586 12.1837Z" fill="#2F2E41"/>
<path id="Vector_25" d="M191.691 155H0.308645C0.22694 155 0.148664 154.967 0.0909738 154.909C0.0332833 154.851 0.00088501 154.773 0.00088501 154.691C0.00088501 154.609 0.0332833 154.531 0.0909738 154.473C0.148664 154.415 0.22694 154.382 0.308645 154.382H191.691C191.773 154.382 191.852 154.414 191.91 154.472C191.967 154.53 192 154.609 192 154.691C192 154.773 191.967 154.852 191.91 154.909C191.852 154.967 191.773 155 191.691 155Z" fill="#3F3D56"/>
</g>
<defs>
<clipPath id="clip0_8_176">
<rect width="192" height="155" fill="white"/>
</clipPath>
</defs>
</svg>
